<svg width="41" height="40" fill="none" xmlns="http://www.w3.org/2000/svg"><g clip-path="url(#a)"><rect x=".971" width="40" height="40" rx="20" fill="#2893B7"/><path fill-rule="evenodd" clip-rule="evenodd" d="M32.45 20 20.971 8.667 9.491 20l11.48 11.333L32.451 20Zm-1.812 0-9.667-9.544L11.304 20l9.667 9.544L30.638 20Z" fill="#fff"/><path fill-rule="evenodd" clip-rule="evenodd" d="m20.971 20-9.666-9.544L1.638 20l9.667 9.544L20.97 20Zm-1.812 0-7.854-7.755L3.45 20l7.855 7.754L19.159 20Z" fill="#fff"/><path fill-rule="evenodd" clip-rule="evenodd" d="m40.304 20-9.666-9.544L20.97 20l9.667 9.544L40.304 20Zm-1.812 0-7.854-7.755L22.784 20l7.854 7.754L38.492 20Z" fill="#fff"/></g><defs><clipPath id="a"><path fill="#fff" transform="translate(.971)" d="M0 0h40v40H0z"/></clipPath></defs></svg>